<?xml version="1.0" encoding="UTF-8"?>
<!DOCTYPE svg PUBLIC "-//W3C//DTD SVG 1.1//EN" "http://www.w3.org/Graphics/SVG/1.1/DTD/svg11.dtd">
<!-- Creator: CorelDRAW 2017 -->
<svg xmlns="http://www.w3.org/2000/svg" xml:space="preserve" width="600px" height="300px" version="1.1" style="shape-rendering:geometricPrecision; text-rendering:geometricPrecision; image-rendering:optimizeQuality; fill-rule:evenodd; clip-rule:evenodd"
viewBox="0 0 600 300"
 xmlns:xlink="http://www.w3.org/1999/xlink">
 <defs>
  <style type="text/css">
   <![CDATA[
    .str0 {stroke:#A33991;stroke-width:0.9;stroke-miterlimit:22.9256}
    .fil0 {fill:none}
    .fil1 {fill:#A33A91}
   ]]>
  </style>
 </defs>
 <g id="Background">
  <metadata id="CorelCorpID_0Corel-Layer"/>
  <rect class="fil0" width="600" height="300"/>
  <g id="_1810656587792">
   <polygon class="fil1 str0" points="458.09,89.64 458.63,89.08 "/>
   <path class="fil1 str0" d="M348.18 148.01c8.8,-11.16 20.59,-24.45 35.38,-39.85 16.35,-17.02 35.26,-28.93 56.75,-35.73 22.45,-7.05 44.48,-7.48 66.09,-1.31 15.09,4.36 27.21,11.32 36.37,20.86 1.73,1.81 3.32,3.65 4.76,5.52 -3.59,-7.48 -9.46,-15.47 -17.6,-23.94 -12.81,-13.35 -29.43,-19.49 -49.84,-18.43 -17.24,0.87 -35.74,6.73 -55.5,17.58 -17.29,9.42 -32.17,20.61 -44.62,33.58 -12.93,13.47 -23.53,27.38 -31.79,41.72z"/>
   <path class="fil1 str0" d="M464.02 117.14c-3.89,-4.05 -6.59,-8.35 -8.08,-12.91 -1.92,-5.86 -1.2,-10.72 2.15,-14.59 -3.59,4.24 -4.7,9.26 -3.32,15.06 1.2,4.99 3.83,9.61 7.9,13.85 8.8,9.16 19.91,15.05 33.32,17.67 12.45,2.37 25.12,1.58 38.03,-2.38 12.89,-3.96 23.69,-10.46 32.37,-19.5 10.83,-11.29 16.85,-23.05 18.05,-35.27 1.19,-13.22 -3.48,-25.32 -14.02,-36.29 -16.57,-17.28 -37.29,-26.32 -62.13,-27.12 -21.79,-0.63 -44.12,4.92 -66.99,16.64 -18.86,9.67 -35.98,22.52 -51.36,38.54 -26.4,27.5 -43.83,52.57 -52.27,75.21 -1.92,5.11 -2.9,8.57 -2.96,10.38l-0.09 2.71c2.93,-12.28 8.92,-25.63 17.96,-40.04 7.85,-12.53 16.7,-23.94 26.58,-34.23 21.13,-22.01 44.12,-38.41 68.96,-49.2 28.38,-12.35 55.71,-15.62 81.99,-9.82 15.74,3.43 27.83,9.54 36.28,18.33 20.65,21.52 19.76,43.97 -2.7,67.35 -9.75,10.16 -21.23,17.07 -34.43,20.72 -13.21,3.65 -26.45,3.54 -39.74,-0.33 -10.48,-3.06 -18.98,-7.98 -25.5,-14.78z"/>
   <path class="fil1 str0" d="M271.34 201.7l-0.19 -0.01 47.37 -58.46c-1.15,3.46 -2.58,7.6 -4.29,12.42 -1.72,4.83 -3.78,10.28 -6.18,16.37 -2.63,6.79 -4.83,12.54 -6.61,17.25 -0.91,2.41 -1.7,4.6 -2.39,6.55l0.13 -0.01 -4.82 15.36 -0.08 -0.01c-3.98,14.06 -5.97,25.39 -5.97,33.97 0,4.06 0.46,7.04 1.38,8.94 1.14,2.62 3.54,3.93 7.2,3.93 2.98,0 6.13,-0.77 9.44,-2.32 4.01,-2.03 6.07,-4.23 6.18,-6.61l0 -0.36c0,-0.48 -0.17,-0.66 -0.51,-0.54 -2.18,2.98 -4.64,4.47 -7.38,4.47 -4.47,0 -6.7,-3.81 -6.7,-11.44 0,-9.06 3.15,-24.2 9.44,-45.41 6.18,-20.86 11.56,-35.22 16.14,-43.09 0.23,-0.59 0.63,-1.16 1.19,-1.69 0.58,-0.54 1.26,-1.11 2.07,-1.7 0.91,-0.71 1.65,-2.27 2.23,-4.65 0.34,-1.79 0.52,-2.86 0.52,-3.22 0,-3.69 -1.72,-5.54 -5.15,-5.54 -2.52,0 -5.56,1.61 -9.1,4.83 -28.72,-12.16 -52.12,-18.24 -70.2,-18.24 -20.36,0 -34.04,6.14 -41.02,18.41 -1.47,2.55 -2.49,5.19 -3.06,7.92 4.64,-5.52 5.79,-20.07 45.46,-20.07 20.25,0 42.04,5.07 65.38,15.2 -3.2,3.45 -6.72,7.51 -10.55,12.15 -3.84,4.65 -8.04,10.02 -12.62,16.09 -6.06,7.99 -10.95,14.4 -14.67,19.22 -1.94,2.53 -3.58,4.64 -4.92,6.33l0.36 0.02 -2.19 2.28 -1.06 1.29 -0.17 -0.01 -6.48 6.75 0.99 0.06c-22.51,26.57 -47.27,46.55 -82.9,58.4 -39.08,13.01 -82.93,16.74 -120.49,-3.11 -14.34,-7.59 -24.52,-16.73 -30.49,-27.5 -14.6,-26.34 -8.16,-47.79 19.34,-64.32 11.95,-7.19 24.75,-10.76 38.41,-10.73 13.66,0.04 26.42,3.71 38.3,11.03 9.36,5.78 16.35,12.83 20.96,21.15 2.75,4.96 4.29,9.85 4.6,14.65 0.4,6.18 -1.51,10.68 -5.71,13.51 4.52,-3.13 6.85,-7.68 6.96,-13.65 0.08,-5.14 -1.32,-10.31 -4.2,-15.5 -6.22,-11.23 -15.48,-19.91 -27.78,-26.06 -11.44,-5.64 -23.88,-8.3 -37.33,-7.95 -13.44,0.35 -25.48,3.72 -36.11,10.11 -13.28,7.98 -22.01,17.72 -26.2,29.2 -4.44,12.45 -2.94,25.39 4.51,38.83 11.73,21.16 29.48,35.52 53.29,42.95 34.65,10.83 78.5,3.76 111.69,-10.69 30.82,-13.41 55.63,-33.7 74.74,-55.99 1.25,-1.36 2.46,-2.72 3.62,-4.08l-0.06 0 5.68 -6.68z"/>
   <path class="fil1 str0" d="M401.93 119.23l0 -0.54c-0.69,-0.71 -1.2,-1.07 -1.54,-1.07 -5.84,0 -10.76,1.49 -14.76,4.47 -2.18,1.79 -3.89,4.05 -5.15,6.79 -4.69,12.75 -10.02,26.16 -15.96,40.23 -2.29,-0.48 -4.32,-0.81 -6.1,-0.99 -1.77,-0.17 -3.4,-0.27 -4.89,-0.27 -5.26,0 -10.18,2.09 -14.76,6.26 -6.06,5.73 -11.21,13.65 -15.45,23.78 -4.34,10.13 -6.52,19.25 -6.52,27.35 0,4.53 1.43,6.8 4.29,6.8 4.01,0 9.9,-4.24 17.68,-12.7 2.52,-2.74 4.95,-5.66 7.29,-8.76 2.35,-3.09 4.67,-6.37 6.96,-9.83 -5.61,11.56 -8.41,20.02 -8.41,25.39 0,3.93 1.77,5.9 5.32,5.9 5.03,0 11.67,-4.29 19.91,-12.88 0.68,-1.31 1.2,-2.68 1.54,-4.11 0,0 1.32,-2.02 3.95,-6.08 2.75,-4.05 4.12,-6.61 4.12,-7.68 0,-0.24 -0.12,-0.48 -0.35,-0.72 -5.95,11.8 -12.41,19.73 -19.39,23.78 -1.26,0.71 -2.17,1.07 -2.75,1.07 -1.37,0 -2.06,-1.31 -2.06,-3.93 0,-6.08 3.95,-19.61 11.85,-40.58 4.81,-12.28 9.72,-23.78 14.76,-34.51 8.69,-17.88 15.1,-26.81 19.22,-26.81 0.57,0 0.97,-0.12 1.2,-0.36zm-47.37 51.84l0 0c3.43,0 5.15,1.85 5.15,5.55 0,6.19 -3.72,15.25 -11.16,27.17 -1.14,1.67 -2.49,3.52 -4.03,5.54 -1.54,2.03 -3.29,4.17 -5.23,6.44 -5.04,5.72 -8.58,8.58 -10.65,8.58 -1.37,0 -2.05,-1.31 -2.05,-3.94 0,-4.52 1.82,-11.61 5.48,-21.27 3.78,-9.53 7.28,-16.21 10.48,-20.02 4.46,-5.37 8.47,-8.05 12.01,-8.05z"/>
   <path class="fil1 str0" d="M436.43 167.5l0 -0.54c-0.69,-0.71 -1.15,-1.07 -1.38,-1.07 -4,0 -8.46,1.79 -13.38,5.36 -5.15,-2.02 -9.61,-3.04 -13.39,-3.04 -5.49,0 -10.35,1.97 -14.58,5.9 -5.84,5.73 -10.99,13.65 -15.45,23.78 -4.35,10.13 -6.53,19.25 -6.53,27.35 0,4.53 1.43,6.8 4.3,6.8 4.69,0 11.44,-5.31 20.24,-15.91l12.88 -16.63c0.11,0.24 0.17,0.53 0.17,0.89 -5.61,11.68 -8.41,20.27 -8.41,25.75 0,3.93 1.77,5.9 5.32,5.9 5.04,0 11.67,-4.29 19.91,-12.88 0.91,-2.02 1.43,-3.39 1.55,-4.11 0,0 1.31,-2.02 3.94,-6.08 2.75,-4.05 4.12,-6.61 4.12,-7.68 0,-0.36 -0.05,-0.6 -0.17,-0.72 -5.95,11.68 -12.47,19.61 -19.57,23.78 -1.26,0.71 -2.17,1.07 -2.74,1.07 -1.6,0 -2.4,-1.49 -2.4,-4.47 0,-6.19 2.91,-16.39 8.75,-30.57 6.18,-15.02 11.38,-22.53 15.62,-22.53 0.57,0 0.97,-0.11 1.2,-0.35zm-26.94 3.57l0 0c3.54,0 5.31,1.85 5.31,5.55 0,6.07 -3.77,15.01 -11.32,26.81 -2.4,3.82 -5.5,7.87 -9.27,12.16 -4.92,5.84 -8.47,8.76 -10.64,8.76 -1.38,0 -2.06,-1.31 -2.06,-3.94 0,-4.52 1.83,-11.61 5.49,-21.27 3.78,-9.53 7.27,-16.21 10.46,-20.02 4.47,-5.37 8.48,-8.05 12.03,-8.05z"/>
   <path class="fil1 str0" d="M524.13 201.29c0,-0.36 -0.06,-0.6 -0.17,-0.72 -6.06,11.8 -12.59,19.73 -19.57,23.78 -1.25,0.71 -2.17,1.07 -2.74,1.07 -1.61,0 -2.4,-1.49 -2.4,-4.47 0,-2.86 0.79,-7.15 2.4,-12.87 0.57,-1.79 1.2,-3.67 1.89,-5.63 0.68,-1.97 1.48,-4.08 2.4,-6.35l4.63 -10.73c1.95,-5 2.92,-8.58 2.92,-10.72 0,-3.93 -1.03,-5.9 -3.09,-5.9 -1.26,0 -3.15,0.77 -5.66,2.32 -9.62,5.49 -18.37,13.77 -26.26,24.85 4.58,-11.32 6.86,-18.41 6.86,-21.27 0,-3.93 -1.08,-5.9 -3.26,-5.9 -1.26,0 -3.14,0.77 -5.66,2.32 -10.07,5.84 -19.79,16.99 -29.18,33.44 1.15,-5.01 2.14,-9.27 3.01,-12.79 0.85,-3.51 1.68,-6.29 2.49,-8.31 3.43,-10.13 7.26,-15.2 11.49,-15.2 0.81,0 1.2,-0.12 1.2,-0.36l-0.17 -0.53c-0.68,-0.72 -1.19,-1.07 -1.54,-1.07 -2.18,0 -4.98,0.47 -8.41,1.43 -3.44,0.83 -6.01,1.96 -7.73,3.39 -0.79,0.72 -1.54,2.51 -2.22,5.36 -0.24,0.96 -0.41,1.97 -0.52,3.04 -0.12,1.08 -0.29,2.09 -0.51,3.05 -5.61,26.93 -10.13,43.2 -13.56,48.8 -0.92,1.67 -1.38,2.5 -1.38,2.5 0,0.12 0.06,0.18 0.18,0.18 1.94,-1.07 3.85,-2.14 5.74,-3.21 1.89,-1.08 3.64,-2.15 5.24,-3.22 1.14,-1.55 1.83,-2.75 2.06,-3.58 5.26,-16.45 12.47,-29.98 21.62,-40.58 3.55,-4.06 6.35,-6.08 8.42,-6.08 1.26,0 1.88,1.02 1.88,3.04 0,0.59 -3.09,9.18 -9.27,25.74 -1.83,4.53 -3.26,8.59 -4.29,12.16 -1.6,4.53 -2.46,7.93 -2.57,10.19l-0.18 1.25 0 1.25c0,0 1.61,-1.37 4.81,-4.11 3.09,-2.62 5.26,-4.05 6.52,-4.29 0.46,-2.26 1.12,-4.64 1.98,-7.15 0.86,-2.5 2.03,-5.18 3.52,-8.05 1.26,-2.62 2.82,-5.36 4.72,-8.22 1.88,-2.86 4.03,-5.96 6.44,-9.29 6.4,-8.47 11.2,-12.7 14.41,-12.7 1.37,0 2.06,1.08 2.06,3.22 0,1.07 -0.92,4.11 -2.75,9.12 -7.21,19.54 -10.81,31.82 -10.81,36.82 0,4.06 1.43,6.09 4.29,6.09 2.63,0 6.41,-1.68 11.33,-5.01 4,-2.86 7.26,-5.6 9.78,-8.23 0.8,-1.78 1.32,-3.15 1.54,-4.11 0,0 1.32,-2.02 3.95,-6.08 2.75,-4.05 4.12,-6.61 4.12,-7.68z"/>
   <path class="fil1 str0" d="M257.85 56.96c6.06,0 11.27,-3.75 15.62,-11.26 0.34,-0.48 0.51,-0.89 0.51,-1.25 0,-0.48 -0.23,-0.72 -0.68,-0.72 -0.46,0 -1.09,0.54 -1.89,1.61 -1.26,1.79 -4.29,2.69 -9.1,2.69 -2.86,0 -6.12,-0.21 -9.78,-0.63 -3.66,-0.42 -7.9,-1.04 -12.7,-1.88 -3.78,-0.71 -7.55,-1.43 -11.33,-2.14 -3.78,-0.72 -7.55,-1.49 -11.33,-2.33 6.98,-10.01 14.65,-15.02 23,-15.02 2.18,0 4.75,1.08 7.72,3.22 3.09,2.03 4.64,4.18 4.64,6.44 0,0.6 -0.15,1.52 -0.43,2.77 -0.29,1.25 -0.43,2.18 -0.43,2.77 0,0.72 0.17,1.07 0.51,1.07 1.84,0 2.75,-1.72 2.75,-5.18 0,-1.43 -0.4,-3.07 -1.2,-4.92 -0.8,-1.84 -1.2,-2.95 -1.2,-3.3 0,-0.48 0.25,-0.84 0.77,-1.08 0.51,-0.24 0.77,-0.53 0.77,-0.89 0,-0.95 -1.66,-2.15 -4.98,-3.58 -1.37,-0.59 -3.03,-0.89 -4.97,-0.89 -13.73,0 -25.06,5.78 -33.98,17.34 -6.87,-1.19 -12.99,-2.08 -18.37,-2.68 -5.38,-0.6 -10.01,-0.89 -13.9,-0.89 -20.71,0 -35.3,5.84 -43.77,17.52 -2.74,3.81 -4.12,6.91 -4.12,9.29 0,3.58 0.52,5.36 1.55,5.36 0.23,0 0.48,-0.14 0.77,-0.44 0.28,-0.3 0.49,-0.45 0.6,-0.45 0.35,0 1.49,0.89 3.44,2.69 2.05,1.78 4.06,2.68 6,2.68 1.6,0 2.57,-0.42 2.92,-1.26 -2.4,-1.18 -4.58,-1.84 -6.53,-1.96 -2.39,-1.55 -3.6,-4.53 -3.6,-8.94 0,-2.62 1.03,-5.3 3.09,-8.05 5.61,-7.27 16.94,-10.9 33.98,-10.9 9.73,0 21.06,1.25 33.99,3.75 -6.29,9.77 -13.22,25.81 -20.77,48.09 -2.17,-0.11 -3.89,-0.17 -5.15,-0.17 -1.14,0 -1.83,0 -2.06,0 -8.69,0 -17.05,2.2 -25.06,6.61 -8.01,4.41 -12.01,7.99 -12.01,10.73 0,1.66 0.86,2.92 2.57,3.75 0,0 0.15,-0.36 0.43,-1.07 0.29,-0.72 0.72,-1.85 1.29,-3.4 0.92,-2.14 1.72,-3.57 2.4,-4.29 3.21,-3.93 9.44,-5.9 18.71,-5.9 1.37,0 3.43,0.09 6.18,0.27 2.75,0.18 6.12,0.39 10.12,0.62 -6.98,20.86 -12.75,34.93 -17.33,42.19 -27.69,-15.25 -43.94,-22.88 -48.74,-22.88 -4.69,0 -7.04,3.28 -7.04,9.84 0,3.81 0.92,7.56 2.75,11.26 5.83,12.27 16.3,18.41 31.41,18.41 8.23,0 15.85,-3.63 22.82,-10.9 23.69,9.77 44.51,14.66 62.48,14.66 9.15,0 16.76,-1.67 22.82,-5.01 8.01,-4.29 12.02,-10.78 12.02,-19.48 0,-0.6 -0.12,-1.32 -0.34,-2.15 -0.23,-0.84 -0.58,-1.64 -1.03,-2.41 -0.46,-0.78 -0.95,-1.43 -1.46,-1.97 -0.52,-0.54 -1.01,-0.81 -1.47,-0.81 -0.45,0 -0.68,0.36 -0.68,1.08 0,0.59 0.12,1.55 0.34,2.86 0.23,1.31 0.34,2.32 0.34,3.04 0,11.08 -11.43,16.62 -34.32,16.62 -20.48,0 -39.07,-3.27 -55.78,-9.83 9.04,-9.89 16.65,-24.55 22.83,-43.98 4.35,0.24 8.78,0.45 13.3,0.63 4.52,0.17 9.07,0.26 13.64,0.26 11.56,0 19.68,-2.32 24.37,-6.97 0.58,-0.59 0.86,-1.07 0.86,-1.43 0,-0.59 -0.45,-1.01 -1.37,-1.25 -7.32,1.91 -12.41,2.86 -15.28,2.86 -4.34,0 -9.84,-0.18 -16.47,-0.53 -4.35,-0.24 -7.9,-0.45 -10.64,-0.63 -2.75,-0.18 -4.7,-0.27 -5.84,-0.27 7.32,-22.05 13.5,-37.72 18.54,-47.02l40.16 9.3c1.72,0.48 3.09,0.71 4.12,0.71zm-94.74 89.21l0 0c-5.04,6.32 -10.47,9.48 -16.31,9.48 -4,0 -8.35,-1.31 -13.04,-3.93 -3.78,-1.91 -7.38,-4.77 -10.81,-8.58 -4.12,-4.41 -6.18,-8.35 -6.18,-11.8 0,-2.87 1.6,-4.3 4.8,-4.3 6.18,0 20.03,6.38 41.54,19.13z"/>
   <path class="fil1 str0" d="M260.17 118.86c10.3,0 23.97,-16.68 41.03,-50.08 2.74,-5.48 4.11,-9.09 4.11,-10.88 0,-0.95 -0.35,-1.43 -1.03,-1.43 -0.8,0 -2.03,0.51 -3.69,1.52 -1.66,1.02 -2.83,2.71 -3.52,5.1 -5.26,17.16 -12.18,30.57 -20.76,40.22 -4.24,4.77 -7.62,7.15 -10.13,7.15 -2.17,0 -3.26,-2.44 -3.26,-7.33 0,-2.14 0.11,-4.38 0.34,-6.7 0.23,-2.33 0.57,-4.8 1.03,-7.42 1.15,-5.84 2.86,-11.38 5.15,-16.62 3.32,-7.75 6.92,-11.63 10.81,-11.63 0.69,0 1.03,-0.12 1.03,-0.36l0 -0.53c-0.91,-0.72 -1.43,-1.07 -1.54,-1.07 -5.95,0 -10.75,1.49 -14.42,4.47 -3.2,2.62 -5.83,9.71 -7.89,21.27 -0.8,4.53 -1.41,8.76 -1.8,12.69 -0.41,3.94 -0.61,7.63 -0.61,11.09 0,3.58 0.17,5.9 0.52,6.97 0.69,2.39 2.23,3.57 4.63,3.57z"/>
   <path class="fil1 str0" d="M350.45 62.37c0,-4.65 -4.18,-6.97 -12.53,-6.97 -6.06,0 -11.15,1.97 -15.27,5.9 -5.72,5.6 -10.7,12.93 -14.94,21.99 -4.46,9.65 -6.69,18.23 -6.69,25.74 0,7.04 3.32,10.55 9.95,10.55 25.67,0 63.44,-34.57 70.17,-60.15 3.59,-13.47 1.13,-24.63 -7.37,-33.49 -9.87,-10.29 -20.65,-9.35 -32.33,2.81 4.25,-3.68 9.05,-5.39 14.37,-5.14 5.33,0.24 9.97,2.42 13.92,6.54 7.6,7.92 9.4,18.4 5.39,31.43 -6.94,22.19 -35.1,54.07 -57.96,54.07 -4.24,0 -6.35,-2.92 -6.35,-8.76 0,-5.37 1.43,-11.8 4.28,-19.31 9.61,-3.7 17.46,-5.54 23.52,-5.54 0.69,0 1.72,0.12 3.09,0.36 1.37,0.23 2.4,0.35 3.09,0.35 0.57,0 0.85,-0.18 0.85,-0.53 0,-0.96 -1.14,-1.61 -3.43,-1.97 5.5,-7.15 8.24,-13.11 8.24,-17.88zm-6.52 4.12l0 0c0,4.64 -1.09,9.17 -3.27,13.58 -0.91,-0.12 -1.82,-0.18 -2.74,-0.18 -0.92,0 -1.83,0 -2.75,0 -2.62,0 -5.4,0.18 -8.32,0.54 -2.92,0.36 -6.04,0.83 -9.35,1.43 3.2,-6.92 6.17,-12.1 8.92,-15.56 4.58,-5.36 8.58,-8.04 12.02,-8.04 3.66,0 5.49,2.74 5.49,8.23z"/>
   <path class="fil1 str0" d="M449.64 119.79c-2.14,7.83 -6.07,14.25 -11.78,19.26 2.66,3.71 4.96,5.56 6.88,5.56 0.93,0 1.99,-0.52 3.17,-1.53 1.47,-1.23 2.41,-1.95 2.8,-2.16l0.25 0.53c-0.69,1.44 -2.22,2.69 -4.59,3.77 -2.17,1.03 -4.04,1.54 -5.62,1.54 -2.36,0 -4.82,-1.56 -7.38,-4.69 -6.11,3.13 -11.9,4.69 -17.37,4.69 -3.4,0 -6.03,-1.25 -7.89,-3.77 -1.87,-2.51 -2.38,-5.56 -1.52,-9.16 1.43,-6.05 7.04,-11.34 16.83,-15.85 -0.74,-3.69 -0.88,-6.54 -0.41,-8.54 0.79,-3.34 2.64,-6.15 5.55,-8.43 2.9,-2.28 5.96,-3.42 9.16,-3.42 2.07,0 3.65,0.51 4.73,1.53 1.26,1.13 1.65,2.72 1.16,4.78 -1,4.2 -6.09,8.46 -15.3,12.77 1.92,8.31 4.86,15.37 8.8,21.17 5.36,-4.52 9.08,-10.58 11.15,-18.19 0.46,-0.01 0.91,0.04 1.38,0.14zm-10.49 -14.23l0 0c1.06,-4.45 -0.11,-6.67 -3.52,-6.67 -1.82,0 -3.51,0.74 -5.05,2.18 -1.56,1.47 -2.56,3.16 -3.02,5.1 -0.56,2.34 -0.39,5.46 0.51,9.35 3.15,-1.44 5.41,-2.68 6.8,-3.76 2.29,-1.73 3.71,-3.8 4.28,-6.2zm-6.56 35.43l0 0c-3.9,-5.54 -6.9,-12.85 -8.98,-21.93 -3.35,1.69 -5.88,3.31 -7.58,4.85 -2.42,2.1 -3.97,4.59 -4.65,7.46 -0.78,3.28 -0.34,6.31 1.32,9.08 1.66,2.77 4.01,4.16 7.06,4.16 3.85,0 8.12,-1.21 12.83,-3.62z"/>
   <polygon class="fil1 str0" points="142.53,221.21 141.87,221.61 "/>
   <path class="fil1 str0" d="M299.13 196.04c-2.78,-3.57 -8.87,-7.25 -18.29,-11.02 -6.89,-2.8 -13.98,-5.1 -21.25,-6.91 -16.59,-4.12 -31.78,-4.98 -45.56,-2.55 -16.67,2.87 -26.55,10.3 -29.63,22.31 -3.59,13.95 5.19,23.55 26.34,28.81 -6.92,-2.26 -12.18,-5.93 -15.78,-11.01 -3.59,-5.07 -4.68,-10.4 -3.24,-15.98 2.76,-10.74 12.4,-17.25 28.91,-19.53 13.39,-1.79 27.68,-0.81 42.86,2.97 17.9,4.45 29.78,8.76 35.64,12.91z"/>
   <path class="fil1 str0" d="M263.2 194.46c-11.27,8.41 -25.96,18.07 -44.07,28.96 -20.02,12.03 -41.25,18.44 -63.7,19.21 -23.43,0.75 -44.82,-4.77 -64.16,-16.56 -13.49,-8.28 -23.47,-18.26 -29.95,-29.95 -1.23,-2.21 -2.3,-4.41 -3.22,-6.61 1.61,8.2 5.29,17.49 11.05,27.87 9.06,16.35 23.58,26.76 43.56,31.24 16.87,3.8 36.19,3.13 57.97,-2.02 19.05,-4.44 36.2,-11.24 51.46,-20.41 15.83,-9.52 29.52,-20.1 41.06,-31.73z"/>
  </g>
 </g>
</svg>
